<?xml version="1.0" encoding="utf-8"?>
<!-- Generator: Adobe Illustrator 16.0.0, SVG Export Plug-In . SVG Version: 6.00 Build 0)  -->
<!DOCTYPE svg PUBLIC "-//W3C//DTD SVG 1.1//EN" "http://www.w3.org/Graphics/SVG/1.1/DTD/svg11.dtd">
<svg version="1.1" id="Capa_1" xmlns="http://www.w3.org/2000/svg" xmlns:xlink="http://www.w3.org/1999/xlink" x="0px" y="0px"
	 width="1025.475px" height="125.557px" viewBox="0 0 1025.475 125.557" enable-background="new 0 0 1025.475 125.557"
	 xml:space="preserve">
<linearGradient id="SVGID_1_" gradientUnits="userSpaceOnUse" x1="521.0979" y1="24.0564" x2="521.0979" y2="149.6111" gradientTransform="matrix(1 0 0 -1 -8.3599 149.6118)">
	<stop  offset="0" style="stop-color:#000000"/>
	<stop  offset="0.2574" style="stop-color:#030304"/>
	<stop  offset="0.4921" style="stop-color:#0E0E0F"/>
	<stop  offset="0.7179" style="stop-color:#1F1F21"/>
	<stop  offset="0.9371" style="stop-color:#37373B"/>
	<stop  offset="1" style="stop-color:#3F3F44"/>
</linearGradient>
<polygon fill="url(#SVGID_1_)" stroke="#000000" stroke-miterlimit="10" points="512.737,125.556 0,125.556 0,4.667 16.055,4.333 
	16.055,3 19.055,0 25.388,0 37.055,19 56.055,19 75.055,40.667 75.055,43.5 69.722,43.5 69.722,82.333 86.722,82.333 87.055,35.667 
	83.055,35 83.055,33 93.722,22.667 107.389,22.667 116.389,15.258 132.003,13.856 132.003,4.653 142.003,4.653 141.988,10.903 
	146.055,11.667 146.055,9.333 177.389,9.333 204.723,34.333 204.723,36 200.723,36.667 200.723,77 211.056,77 211.056,66.667 
	226.723,66.333 226.723,58.667 217.389,58.667 217.389,56.667 239.723,49 239.723,43.667 236.389,44 236.389,42.333 250.575,25.062 
	265.987,25 266.013,20.686 275.003,20.67 275.019,24.95 294.056,25 307.389,41 307.389,43.667 322.389,45 336.722,56.333 
	336.389,58.667 334.056,58.667 334.056,75.666 338.722,75.666 338.722,82.333 344.055,81 344.055,59 353.055,53.333 353.055,38.333 
	367.722,29 375.388,33 394.055,24.667 397.055,24.667 404.99,27.945 404.988,25.856 414.988,25.903 414.988,31.45 419.055,34.667 
	425.388,29.333 439.722,40 439.722,74 445.722,74.667 445.722,72.667 447.722,72.333 447.722,61.667 451.055,62 451.055,72.667 
	453.055,73 453.055,82.333 461.055,82.333 461.05,72.361 463.055,72.333 463.055,68.611 461.055,68.611 461.055,65.278 
	461.055,65.278 463.134,63.028 465.863,63.028 467.722,65.333 467.722,68.611 465.389,68.611 465.389,72.333 467.055,72.333 
	467.055,74.333 477.055,74.333 476.722,33.667 473.389,33.667 473.389,31.667 512.737,14.5 512.737,14.5 512.737,14.5 
	552.086,31.667 552.086,33.667 548.753,33.667 548.42,74.333 558.42,74.333 558.42,72.333 560.086,72.333 560.086,68.611 
	557.753,68.611 557.747,64.634 559.705,62.966 562.541,62.948 564.437,64.593 564.42,68.611 564.42,68.611 562.42,68.611 
	562.42,72.333 564.375,72.323 564.42,82.333 572.42,82.333 572.42,73 574.42,72.667 574.42,62 577.753,61.667 577.753,72.333 
	579.753,72.667 579.753,74.667 585.753,74 585.753,40 600.086,29.334 606.42,34.667 608.956,32.51 608.978,26.182 619,26.176 
	618.988,29.278 628.42,24.667 631.42,24.667 650.086,33.001 657.753,29.001 672.42,38.333 672.42,53.333 681.42,59 681.42,81 
	686.752,82.333 686.752,75.666 691.419,75.666 691.419,58.667 689.086,58.667 688.752,56.333 703.086,45 718.086,43.667 718.086,41 
	731.419,25 749.972,24.981 749.954,20.684 759.988,20.684 759.972,25.002 774.899,25.062 789.086,42.333 789.086,44 785.752,43.667 
	785.752,49 808.086,56.667 808.086,58.667 798.752,58.667 798.752,66.333 814.419,66.667 814.419,77 824.752,77 824.704,35.997 
	820.752,36 820.752,34.333 848.086,9.334 879.42,9.334 879.42,11.667 882.988,11.309 882.988,4.667 893.003,4.667 892.988,13.95 
	909.086,15.259 918.086,22.667 931.753,22.667 942.42,33.001 942.42,35.001 938.42,35.667 938.753,82.333 955.753,82.333 
	955.753,43.5 950.42,43.5 950.42,40.667 969.42,19.001 988.42,19 1000.087,0 1006.42,0 1009.42,3 1009.42,4.334 1025.475,4.667 
	1025.475,125.556 "/>
<linearGradient id="SVGID_2_" gradientUnits="userSpaceOnUse" x1="1025.2708" y1="125.5559" x2="1025.2708" y2="5.113">
	<stop  offset="0" style="stop-color:#000000"/>
	<stop  offset="0.2574" style="stop-color:#030304"/>
	<stop  offset="0.4921" style="stop-color:#0E0E0F"/>
	<stop  offset="0.7179" style="stop-color:#1F1F21"/>
	<stop  offset="0.9371" style="stop-color:#37373B"/>
	<stop  offset="1" style="stop-color:#3F3F44"/>
</linearGradient>
<rect x="1024.066" y="5.113" fill="url(#SVGID_2_)" width="2.409" height="120.443"/>
<linearGradient id="SVGID_3_" gradientUnits="userSpaceOnUse" x1="0.4749" y1="125.5559" x2="0.4748" y2="5.113">
	<stop  offset="0" style="stop-color:#000000"/>
	<stop  offset="0.2574" style="stop-color:#030304"/>
	<stop  offset="0.4921" style="stop-color:#0E0E0F"/>
	<stop  offset="0.7179" style="stop-color:#1F1F21"/>
	<stop  offset="0.9371" style="stop-color:#37373B"/>
	<stop  offset="1" style="stop-color:#3F3F44"/>
</linearGradient>
<rect x="-0.73" y="5.113" fill="url(#SVGID_3_)" width="2.409" height="120.443"/>
</svg>
