<?xml version="1.0" encoding="utf-8"?>
<!-- Generator: Adobe Illustrator 16.0.0, SVG Export Plug-In . SVG Version: 6.00 Build 0)  -->
<!DOCTYPE svg PUBLIC "-//W3C//DTD SVG 1.1//EN" "http://www.w3.org/Graphics/SVG/1.1/DTD/svg11.dtd">
<svg version="1.1" id="Capa_1" xmlns="http://www.w3.org/2000/svg" xmlns:xlink="http://www.w3.org/1999/xlink" x="0px" y="0px"
	 width="202.59px" height="235.213px" viewBox="0 0 202.59 235.213" enable-background="new 0 0 202.59 235.213"
	 xml:space="preserve">
<linearGradient id="SVGID_1_" gradientUnits="userSpaceOnUse" x1="-197.8691" y1="65.9082" x2="1288.8197" y2="65.9082" gradientTransform="matrix(0.9907 0.1361 0.1361 -0.9907 -12.3588 249.9847)">
	<stop  offset="0.0051" style="stop-color:#0D0C0A"/>
	<stop  offset="1" style="stop-color:#141E51"/>
</linearGradient>
<polyline fill="url(#SVGID_1_)" points="104.795,199.831 105.2,199.328 105.812,199.438 104.795,199.831 "/>
<g>
	<path d="M149.281,190.604c0.679-6.095,0.38-14.074-3.649-17.814c-1.991-1.855-4.866-2.67-8.991-1.738
		c-3.065-7.66-3.358-13.984-5.658-21.874c3.938,0.911,9.879,1.476,13.582-0.87c4.822,1.461,12.92,4.573,17.961,1.959
		c5.238-2.683,12.082-8.152,15.681-14.703c6.247-4.965,6.585-8.26,4.123-10.545c-4.685-4.348-19.466-5.045-23.085-6.771
		c-4.751-2.196-8.107-5.198-11.094-7.969c-0.33-0.304-0.66-0.615-0.979-0.905c-0.567-0.532-1.106-1.046-1.671-1.567
		c-5.534-5.14-10.876-8.829-23.46-4.978c-2.949-9.88,4.003-9.066,9.854-14.496c1.645-1.911,2.012-2.928,1.58-3.33
		c-1.564-1.453-13.545,4.991-14.537,5.464c-1.363-2.773,6.681-11.059,5.123-12.499c-0.309-0.282-0.922-0.288-2.012-0.011
		c2.68-6.016,16.098-7.463,12.924-14.107c-6.389-2.11-18.008,14.485-20.308,12.358c-0.013-0.019-0.024-0.035-0.042-0.05
		c2.191-6.34-0.535-10.658,6.468-14.198c2.513-1.104,9.944-4.389,8.03-8.225c-11.786-4.062-17.908,11.003-23.09,17.335
		c-1.318-0.828-2.354-1.61-3.165-2.361c-8.826-8.19,10.868-12.403,9.673-21.56l-0.09-0.083c-5.409-5.022-14.006,8.207-15.132,11.933
		c-1.203-8.954,8.404-11.592,8.457-19.364c-4.737,0.689-6.563,5.736-10.498,6.886c-1.286-5.574,10.349-10.868,7.509-16.38
		c-0.045-0.042-0.072-0.08-0.102-0.106c-2.43-2.257-5.671,4.384-7.712,4.664l4.437-10.711c-0.112-0.689-0.325-1.139-0.618-1.421
		c-2.065-1.911-7.743,5.662-8.097,6.66c-1.964,6.271,4.488,26.426-0.314,31.302c-1.725-0.591-3-1.325-3.947-2.207
		c-5.965-5.534,2.271-15.901,1.975-21.871c-2.973,0.399-5.135,5.675-6.484,7.586c1.408-2.268,1.818-4.637,1.022-7.017
		c-1.962,1.06-3.615,2.404-4.9,4.232c-2.177-4.475,5.898-13.756,5.691-19.037c-4.03-0.99-9.939,8.222-12.457,11.52
		c-0.338,0.9-0.575,1.168-0.732,1.022c-0.418-0.386-0.295-3.833,0.003-7.054c0.346-3.221,0.932-6.324,1.437-5.885
		c-0.117-0.221-0.231-0.452-0.362-0.572c-2.507-2.332-7.839,11.824-5.449,17.243c1.478,3.29,7.426,23.109,5.497,25.018
		c-2.561-0.841-4.371-1.866-5.632-3.032c-6.021-5.584,0.322-14.421-2.497-22.369c-3.247,3.173-3.562,7.969-6.292,11.483
		c-0.809-0.271-1.479-0.687-2.012-1.177c-4.56-4.237,0.032-15.494,0.368-19.729c0.013,0.075,0,0.09-0.04,0.059
		c-0.117-0.112-0.418-1.171-0.881-2.284c-0.46-1.235-1.054-2.534-1.65-3.083c-0.543-0.505-1.081-0.389-1.493,0.99
		c-6.609,12.271-2.718,28.677,6.348,38.308c0.548,0.575,1.083,1.134,1.65,1.65c8.938,8.294,18.933,8.65,27.704,16.787
		c4.424,3.314,8.943,2.665,12.361,5.837c0.713,0.663,1.368,1.469,1.986,2.529c3.255,5.366,7.197,11.493,8.997,17.551
		c-8.959-3.098-19.223-1.211-28.06-5.278c-2.901,4.586,2.252,11.022,4.802,14.35c-1.022,3.029-8.272-0.543-8.903,3.822
		c0.428,3.438,1.823,6.031,3.825,7.886c6.348,5.881,18.653,4.303,24.453-2.527c1.579,13.406,13.541,18.736-3.143,28.125
		c-1.393,0.916-14.323-5.308-14.284-2.821c-10.71-7.868-21.126-8.467-31.893-0.724c-0.633-1.272-1.464-2.312-2.454-3.231
		c-1.789-1.656-4.022-2.837-6.234-3.993c-2.193-1.128-4.354-2.252-5.997-3.773c-2.066-1.922-3.341-4.467-2.934-8.508
		c-5.917,0.863-6.955,16.069-2.042,20.635c0.495,0.459,1.073,0.83,1.714,1.033c-4.445,2.914-4.32,5.121-2.459,6.849
		c0.255,0.237,0.57,0.452,0.875,0.668c2.593,0.245,5.23,1.35,7.668,3.603c0.948,0.394,1.698,0.747,2.055,1.074
		c0.149,0.141,0.239,0.285,0.239,0.402c-0.33,0.003-0.612-0.01-0.916-0.016c1.448,1.729,2.268,3.582,2.672,5.453
		c0.458,0.828,0.804,1.701,0.969,2.579c0.293,1.568,0.761,3.142,0.671,4.743c-0.093,1.595-0.157,2.65-0.365,3.679
		c-0.663,6.623-4.533,14.064-9.324,17.312c-0.25-0.61-0.607-1.113-1.046-1.513c-2.962-2.752-9.305-0.748-8.69,4.143
		c-1.379-0.458-2.726-0.463-4.134,0.016c-0.002-0.008-0.01-0.013-0.013-0.025c-0.112,0.154-0.253,0.287-0.367,0.437
		c-0.176,0.378-0.328,0.761-0.538,1.123c0.016-0.005,0.032-0.005,0.048-0.011c-0.591,2.103-0.24,3.451,0.673,4.301
		c2.76,2.562,10.541,0.564,12.827,0.117c9.061-2.108,13.314-9.008,17.493-5.129c1.238,1.146,2.451,3.218,3.79,6.605
		c0.234,0.717,3.258,13.354,5.023,14.993c0.167,0.152,0.325,0.21,0.466,0.128c3.101-0.984,4.852-7.74,3.54-10.328
		c-0.293-5.619-0.841-11.078-4.365-15.592c3.12-2.451,6.569-5.292,8.725-8.658c5.675-0.924,10.099,7.444,16.742,5.502
		c1.948-1.067,5.376-0.634,8.169-0.668c4.314-0.802,19.055-9.777,22.643-6.445c0.831,0.762,1.078,2.178,0.438,4.513
		c-1.557,5.827-8.315,8.089-12.915,10.683c0.187,1.455,0.704,2.467,1.452,3.164c4.193,3.881,15.773-3.311,17.957-6.32
		c0.787-0.979,3.298-8.965,1.842-10.32c-0.074-0.066-0.149-0.112-0.234-0.137c4.051-0.229,6.756-2.405,8.098-6.217
		c1.633,7.416-1.971,15.741,0.218,22.436C146.311,210.392,149.029,193.399,149.281,190.604z"/>
	<path fill="none" stroke="#FFFFFF" stroke-width="2" stroke-miterlimit="10" d="M149.281,190.604
		c0.679-6.095,0.38-14.074-3.649-17.814c-1.991-1.855-4.866-2.67-8.991-1.738c-3.065-7.66-3.358-13.984-5.658-21.874
		c3.938,0.911,9.879,1.476,13.582-0.87c4.822,1.461,12.92,4.573,17.961,1.959c5.238-2.683,12.082-8.152,15.681-14.703
		c6.247-4.965,6.585-8.26,4.123-10.545c-4.685-4.348-19.466-5.045-23.085-6.771c-4.751-2.196-8.107-5.198-11.094-7.969
		c-0.33-0.304-0.66-0.615-0.979-0.905c-0.567-0.532-1.106-1.046-1.671-1.567c-5.534-5.14-10.876-8.829-23.46-4.978
		c-2.949-9.88,4.003-9.066,9.854-14.496c1.645-1.911,2.012-2.928,1.58-3.33c-1.564-1.453-13.545,4.991-14.537,5.464
		c-1.363-2.773,6.681-11.059,5.123-12.499c-0.309-0.282-0.922-0.288-2.012-0.011c2.68-6.016,16.098-7.463,12.924-14.107
		c-6.389-2.11-18.008,14.485-20.308,12.358c-0.013-0.019-0.024-0.035-0.042-0.05c2.191-6.34-0.535-10.658,6.468-14.198
		c2.513-1.104,9.944-4.389,8.03-8.225c-11.786-4.062-17.908,11.003-23.09,17.335c-1.318-0.828-2.354-1.61-3.165-2.361
		c-8.826-8.19,10.868-12.403,9.673-21.56l-0.09-0.083c-5.409-5.022-14.006,8.207-15.132,11.933
		c-1.203-8.954,8.404-11.592,8.457-19.364c-4.737,0.689-6.563,5.736-10.498,6.886c-1.286-5.574,10.349-10.868,7.509-16.38
		c-0.045-0.042-0.072-0.08-0.102-0.106c-2.43-2.257-5.671,4.384-7.712,4.664l4.437-10.711c-0.112-0.689-0.325-1.139-0.618-1.421
		c-2.065-1.911-7.743,5.662-8.097,6.66c-1.964,6.271,4.488,26.426-0.314,31.302c-1.725-0.591-3-1.325-3.947-2.207
		c-5.965-5.534,2.271-15.901,1.975-21.871c-2.973,0.399-5.135,5.675-6.484,7.586c1.408-2.268,1.818-4.637,1.022-7.017
		c-1.962,1.06-3.615,2.404-4.9,4.232c-2.177-4.475,5.898-13.756,5.691-19.037c-4.03-0.99-9.939,8.222-12.457,11.52
		c-0.338,0.9-0.575,1.168-0.732,1.022c-0.418-0.386-0.295-3.833,0.003-7.054c0.346-3.221,0.932-6.324,1.437-5.885
		c-0.117-0.221-0.231-0.452-0.362-0.572c-2.507-2.332-7.839,11.824-5.449,17.243c1.478,3.29,7.426,23.109,5.497,25.018
		c-2.561-0.841-4.371-1.866-5.632-3.032c-6.021-5.584,0.322-14.421-2.497-22.369c-3.247,3.173-3.562,7.969-6.292,11.483
		c-0.809-0.271-1.479-0.687-2.012-1.177c-4.56-4.237,0.032-15.494,0.368-19.729c0.013,0.075,0,0.09-0.04,0.059
		c-0.117-0.112-0.418-1.171-0.881-2.284c-0.46-1.235-1.054-2.534-1.65-3.083c-0.543-0.505-1.081-0.389-1.493,0.99
		c-6.609,12.271-2.718,28.677,6.348,38.308c0.548,0.575,1.083,1.134,1.65,1.65c8.938,8.294,18.933,8.65,27.704,16.787
		c4.424,3.314,8.943,2.665,12.361,5.837c0.713,0.663,1.368,1.469,1.986,2.529c3.255,5.366,7.197,11.493,8.997,17.551
		c-8.959-3.098-19.223-1.211-28.06-5.278c-2.901,4.586,2.252,11.022,4.802,14.35c-1.022,3.029-8.272-0.543-8.903,3.822
		c0.428,3.438,1.823,6.031,3.825,7.886c6.348,5.881,18.653,4.303,24.453-2.527c1.579,13.406,13.541,18.736-3.143,28.125
		c-1.393,0.916-14.323-5.308-14.284-2.821c-10.71-7.868-21.126-8.467-31.893-0.724c-0.633-1.272-1.464-2.312-2.454-3.231
		c-1.789-1.656-4.022-2.837-6.234-3.993c-2.193-1.128-4.354-2.252-5.997-3.773c-2.066-1.922-3.341-4.467-2.934-8.508
		c-5.917,0.863-6.955,16.069-2.042,20.635c0.495,0.459,1.073,0.83,1.714,1.033c-4.445,2.914-4.32,5.121-2.459,6.849
		c0.255,0.237,0.57,0.452,0.875,0.668c2.593,0.245,5.23,1.35,7.668,3.603c0.948,0.394,1.698,0.747,2.055,1.074
		c0.149,0.141,0.239,0.285,0.239,0.402c-0.33,0.003-0.612-0.01-0.916-0.016c1.448,1.729,2.268,3.582,2.672,5.453
		c0.458,0.828,0.804,1.701,0.969,2.579c0.293,1.568,0.761,3.142,0.671,4.743c-0.093,1.595-0.157,2.65-0.365,3.679
		c-0.663,6.623-4.533,14.064-9.324,17.312c-0.25-0.61-0.607-1.113-1.046-1.513c-2.962-2.752-9.305-0.748-8.69,4.143
		c-1.379-0.458-2.726-0.463-4.134,0.016c-0.002-0.008-0.01-0.013-0.013-0.025c-0.112,0.154-0.253,0.287-0.367,0.437
		c-0.176,0.378-0.328,0.761-0.538,1.123c0.016-0.005,0.032-0.005,0.048-0.011c-0.591,2.103-0.24,3.451,0.673,4.301
		c2.76,2.562,10.541,0.564,12.827,0.117c9.061-2.108,13.314-9.008,17.493-5.129c1.238,1.146,2.451,3.218,3.79,6.605
		c0.234,0.717,3.258,13.354,5.023,14.993c0.167,0.152,0.325,0.21,0.466,0.128c3.101-0.984,4.852-7.74,3.54-10.328
		c-0.293-5.619-0.841-11.078-4.365-15.592c3.12-2.451,6.569-5.292,8.725-8.658c5.675-0.924,10.099,7.444,16.742,5.502
		c1.948-1.067,5.376-0.634,8.169-0.668c4.314-0.802,19.055-9.777,22.643-6.445c0.831,0.762,1.078,2.178,0.438,4.513
		c-1.557,5.827-8.315,8.089-12.915,10.683c0.187,1.455,0.704,2.467,1.452,3.164c4.193,3.881,15.773-3.311,17.957-6.32
		c0.787-0.979,3.298-8.965,1.842-10.32c-0.074-0.066-0.149-0.112-0.234-0.137c4.051-0.229,6.756-2.405,8.098-6.217
		c1.633,7.416-1.971,15.741,0.218,22.436C146.311,210.392,149.029,193.399,149.281,190.604z"/>
</g>
</svg>
