<?xml version="1.0" encoding="utf-8"?>
<!-- Generator: Adobe Illustrator 16.0.0, SVG Export Plug-In . SVG Version: 6.00 Build 0)  -->
<!DOCTYPE svg PUBLIC "-//W3C//DTD SVG 1.1//EN" "http://www.w3.org/Graphics/SVG/1.1/DTD/svg11.dtd">
<svg version="1.1" id="Capa_1" xmlns="http://www.w3.org/2000/svg" xmlns:xlink="http://www.w3.org/1999/xlink" x="0px" y="0px"
	 width="140.465px" height="106.742px" viewBox="0 0 140.465 106.742" enable-background="new 0 0 140.465 106.742"
	 xml:space="preserve">
<g>
	
		<linearGradient id="SVGID_1_" gradientUnits="userSpaceOnUse" x1="0.27" y1="79.5352" x2="545.0378" y2="79.5351" gradientTransform="matrix(0.9907 0.1361 0.1361 -0.9907 -12.5576 124.3253)">
		<stop  offset="0.0051" style="stop-color:#0F0E0C"/>
		<stop  offset="1" style="stop-color:#161E51"/>
	</linearGradient>
	<path fill="url(#SVGID_1_)" d="M140.443,98.186c-0.021-0.002-0.04-0.002-0.062-0.004c0.636-4.875-2.389-9.611-7.155-10.982
		c-2.364-0.706-7.281,0.5-3.47-2.299c1.974-1.434,1.914-2.323,2.867-2.857c0.024-0.25,0.082-0.493,0.141-0.736
		c0.01-0.384,0.057-0.766,0.143-1.139c-0.013,0.001-0.023,0.002-0.037,0.003c0.774-4.142-1.174-8.69-5.474-8.696
		c-0.45,0-0.927,0.047-1.422,0.154c-4.513,0.918-4.298,7.716,0.428,8.092c-1.354,1.115-4.29,1.326-6.028,1.321
		c-0.154,0-0.305,0.003-0.437,0c0.625,0.003-1.701-0.778-1.812-0.778c-0.045,0.002-0.092-0.004-0.135-0.004
		c-1.678-0.005-2.355,1.332-1.496,1.369c-1.679,0.656-1.332,0.934-1.971,0.928c-0.078,0.002-0.172,0.002-0.283-0.006
		c2.812-2.586,3.045-9.713-1.46-10.908c-0.407-0.109-0.813-0.146-1.182-0.146c0.149-1.332,0.187-2.62,0.005-3.994
		c-0.365-2.622-1.323-4.992-2.725-7.062c2.812-2.689,4.332-5.9,3.893-9.16c-0.145-1.142-0.516-2.177-1.068-3.175
		c0.752-0.271,1.479-0.6,2.016-0.6c0.255,0,0.469,0.075,0.607,0.268c0.777,1.002,1.512,1.967,2.141,2.887
		c0.593-0.223,1.518-0.957,1.887-1.471c-0.404-0.339-0.551-0.779-0.92-1.149c0.345,0.206,0.662,0.284,0.955,0.286
		c0.55,0,1.014-0.278,1.447-0.545c0.444-0.299,0.863-0.594,1.295-0.594c0.25,0,0.504,0.094,0.773,0.336
		c0.521-1.438,1.188-2.805,3.184-3.764c-0.697-0.923-1.377-1.268-2.023-1.27c-0.96-0.003-1.854,0.75-2.67,1.527
		c-0.818,0.771-1.541,1.538-2.143,1.535c-0.383,0-0.715-0.305-0.998-1.095c1.627-1.813,1.147-2.919,3.072-5.614
		c0.036-0.008,0.068-0.016,0.107-0.016c0.814,0.002,2.732,1.85,3.404,2.309c0.443-0.404,1.035-1.404,1.254-2.027
		c-0.477-0.154-0.807-0.559-1.29-0.743c0.142,0.023,0.278,0.036,0.415,0.039c2.685,0.003,4.128-4.677,5.396-6.685
		c-1.045-0.119-1.708-0.562-2.266-0.954c-0.879-0.003-1.76-0.043-2.639-0.165c-0.004,0.003-0.008,0.004-0.01,0.007
		c1.137,1.14,0.396,5.203-1.07,5.203c-0.336,0-0.717-0.216-1.116-0.735c1.373-3.582-1.281-7.546-5.163-7.583
		c0.236-0.112,0.482-0.159,0.722-0.159c0.472,0.003,0.946,0.175,1.384,0.347c0.416,0.175,0.791,0.35,1.09,0.352
		c0.016,0,0.029-0.003,0.043-0.004c-0.239-0.521-0.373-1.086-0.406-1.667c-1.314-0.364-0.369-0.657-1.125-2.046
		c0.004-0.002,0.01-0.002,0.021-0.005c0.118,0.003,0.53,0.206,0.94,0.412c0.097,0.047,0.194,0.094,0.292,0.139
		c0.104-0.468,0.268-0.924,0.484-1.356c-0.039-0.063-0.07-0.118-0.113-0.185c0.893-1.291,2.184-2.286,2.003-4.283
		c0.489,0.175,0.749,0.258,0.89,0.258c0.321,0,0.064-0.433,0.551-1.33c-2.514-0.85-5.058-2.891-7.475-2.896
		c-0.316,0-0.633,0.039-0.947,0.115l-0.334,1.553c-1.295,2.326-1.809,0.292-4.289,2.503c-0.293-0.996,0.744-1.588,0.555-2.657
		c-0.148-0.693-0.295-0.92-0.426-0.92c-0.125,0-0.241,0.185-0.346,0.36c-0.133,0.201-0.266,0.386-0.406,0.386
		c-0.094,0-0.19-0.086-0.297-0.311c-0.442-0.821-0.566-1.056-0.627-1.056c-0.041,0-0.055,0.107-0.111,0.206
		c-0.084,0.083-0.198,0.162-0.422,0.162c-0.182,0-0.435-0.057-0.799-0.201c-0.736-0.297-0.551-0.781-0.252-1.147
		c-0.631-0.964-1.543-6.1-1.951-7.613C104.915,2.669,96.096,0.007,91.754,0c-0.498-0.001-0.939,0.035-1.299,0.107
		c-6.363,1.283-9.807,6.968-12.475,12.25c-0.723-0.705-1.365-0.996-1.926-0.997c-1.358-0.002-2.247,1.701-2.695,3.429
		c-0.48,1.682-0.521,3.399-0.163,3.397c0.005,0.002,0.007,0.002,0.013,0.002c0.008,0,0.021-0.002,0.033-0.002
		c1.051,0,1.682,2.998,3.359,3.146c0.156,0.016,0.297,0.023,0.43,0.023c0.594,0,0.967-0.12,1.272-0.243
		c0.325-0.13,0.577-0.263,0.97-0.261c0.492,0,1.199,0.211,2.537,0.892c-0.18-0.016-0.336-0.021-0.469-0.021
		c-1.582-0.005-0.197,1.134,0.65,2.093c1.031,1.184-0.488,2.811,0.771,4.03c0.812,0.777,2.543,4.547,2.982,4.771
		c-0.072-0.042,2.875,7.763,3.205,8.835l-0.037,0.041c-1.551,0.326-2.996,0.77-4.399,1.285c0.037-0.594,0-1.184-0.068-1.814
		c-0.843-6.376-6.293-11.019-12.561-11.026c-0.556-0.003-1.123,0.034-1.69,0.107c-2.88,0.365-5.396,1.73-7.283,3.611
		c-0.294-1.273-0.861-1.794-1.984-1.794c-0.83,0-1.964,0.281-3.521,0.751c1.774-1.212,1.665-3.475-0.034-4.841
		c-0.412-0.177-0.771-0.255-1.086-0.258c-1.352-0.003-1.903,1.436-2.354,2.841c-1.874-5.99-2.758-9.432-9.186-12.022
		c-4.134-1.452-8.457-3.113-12.854-3.42c-0.441-0.031-0.887-0.044-1.326-0.047c-3.563-0.005-7.04,0.917-10.133,2.654
		c-3.661,2.138-6.583,5.31-8.808,8.858c-1.036-1.014-1.838-1.418-2.471-1.416c-1.711-0.002-2.228,2.907-3.039,4.658
		c-1.167-0.782-2.162-1.274-2.984-1.277c-0.975-0.002-1.705,0.688-2.188,2.412c-0.262,0.958-1.154,3.991-0.898,4.802
		c0.153,0.552,0.708,0.705,1.409,0.711c0.488,0,1.042-0.072,1.585-0.148c0.554-0.084,1.096-0.164,1.538-0.164
		c0.357,0,0.649,0.055,0.83,0.203c-0.048,3.996,0.506,7.984,2.084,11.721c-0.724-0.629-1.285-0.885-1.719-0.89
		c-1.91,0-1.569,4.847-2.833,5.686c-3.81,2.617,4.912,2.558,5.466,2.591c0.415-0.467,0.946-0.664,1.564-0.664
		c3.432,0.006,9.446,6.279,11.325,8.002c4.648,4.258,6.894,9.252,6.48,15.457c-0.137-0.017-0.269-0.023-0.397-0.023
		c-1.487-0.005-2.315,0.954-2.452,1.941c-0.126,0.976,0.413,1.941,1.733,1.944c0.232,0.003,0.492-0.03,0.775-0.091
		c-0.147-0.738,0.189-1.63-0.03-2.367c2.839,1.738,5.462,3.629,7.526,6.295c-2.443,1.194-2.698,6.137,0.619,6.141
		c0.051,0,0.098-0.004,0.147-0.012l-0.811,0.407c-0.579-0.479-1.29-0.698-2.003-0.696c-2.234-0.006-4.511,2.077-3.032,4.463
		c-0.607-0.436-1.092-0.604-1.499-0.606c-1.309-0.003-1.813,1.726-2.825,2.116c-0.584,0.214-1.332,0.269-2.118,0.267
		c-0.966,0-1.979-0.092-2.797-0.092c-1.084,0.026-2.401,0.164-3.661,0.162c-0.896,0-1.76-0.07-2.51-0.318
		c-4.433-1.446,0.04-3.139,0.708-4.104c-0.276-0.41-0.697-0.588-1.167-0.588c-1.836-0.004-4.406,2.727-1.908,4.763
		c0.966,0.993,1.852,1.168,2.899,1.168c0.593,0.003,1.238-0.056,1.979-0.052c4.876-0.029,9.756-0.023,14.632-0.051
		c-1.958,0.437-3.071,3.137-1.778,4.758c-0.453-0.565-1.095-0.815-1.761-0.818c-1.396,0-2.906,1.066-3.081,2.439
		c-0.356,0.287-1.028,0.362-1.782,0.359c-0.519,0-1.075-0.033-1.583-0.064c-0.553-0.041-1.069-0.078-1.404-0.078
		c-1.404-0.006-3.097,0.203-4.716,0.197c-1.027,0-2.024-0.082-2.897-0.358c-4.838-1.558-0.181-3.474,0.82-4.617
		c-0.319-0.386-0.797-0.534-1.314-0.537c-1.027-0.002-2.224,0.599-2.716,1.16c-3.828,4.658,5.281,5.467,12.196,5.478
		c3.441,0.006,6.335-0.188,6.831-0.203c15.113-0.014,30.265-0.023,45.377-0.078c14.116-0.016,28.232-0.036,42.348-0.047
		c3.33,0.006,6.654-0.031,9.98-0.023c1.721,0,3.218,0.443,4.838,0.451c0.674-0.003,1.368-0.081,2.105-0.295
		c2.594-0.734,4.996-2.575,6.291-4.942c0.271-0.499,0.475-0.856,0.656-1.128c0.08-0.268,0.178-0.523,0.303-0.771
		c0.007-0.385,0.039-0.77,0.142-1.145c0.006-0.021,0.017-0.044,0.024-0.064C140.459,98.325,140.445,98.255,140.443,98.186z
		 M108.59,79.326l0.666-1.034c0.385,0.164,0.857,0.269,1.412,0.269c0.082,0,0.166-0.006,0.254-0.008
		C110.7,78.775,109.665,79.032,108.59,79.326z"/>
	<path fill="none" stroke="#FFFFFF" d="M140.443,98.186c-0.021-0.002-0.04-0.002-0.062-0.004c0.636-4.875-2.389-9.611-7.155-10.982
		c-2.364-0.706-7.281,0.5-3.47-2.299c1.974-1.434,1.914-2.323,2.867-2.857c0.024-0.25,0.082-0.493,0.141-0.736
		c0.01-0.384,0.057-0.766,0.143-1.139c-0.013,0.001-0.023,0.002-0.037,0.003c0.774-4.142-1.174-8.69-5.474-8.696
		c-0.45,0-0.927,0.047-1.422,0.154c-4.513,0.918-4.298,7.716,0.428,8.092c-1.354,1.115-4.29,1.326-6.028,1.321
		c-0.154,0-0.305,0.003-0.437,0c0.625,0.003-1.701-0.778-1.812-0.778c-0.045,0.002-0.092-0.004-0.135-0.004
		c-1.678-0.005-2.355,1.332-1.496,1.369c-1.679,0.656-1.332,0.934-1.971,0.928c-0.078,0.002-0.172,0.002-0.283-0.006
		c2.812-2.586,3.045-9.713-1.46-10.908c-0.407-0.109-0.813-0.146-1.182-0.146c0.149-1.332,0.187-2.62,0.005-3.994
		c-0.365-2.622-1.323-4.992-2.725-7.062c2.812-2.689,4.332-5.9,3.893-9.16c-0.145-1.142-0.516-2.177-1.068-3.175
		c0.752-0.271,1.479-0.6,2.016-0.6c0.255,0,0.469,0.075,0.607,0.268c0.777,1.002,1.512,1.967,2.141,2.887
		c0.593-0.223,1.518-0.957,1.887-1.471c-0.404-0.339-0.551-0.779-0.92-1.149c0.345,0.206,0.662,0.284,0.955,0.286
		c0.55,0,1.014-0.278,1.447-0.545c0.444-0.299,0.863-0.594,1.295-0.594c0.25,0,0.504,0.094,0.773,0.336
		c0.521-1.438,1.188-2.805,3.184-3.764c-0.697-0.923-1.377-1.268-2.023-1.27c-0.96-0.003-1.854,0.75-2.67,1.527
		c-0.818,0.771-1.541,1.538-2.143,1.535c-0.383,0-0.715-0.305-0.998-1.095c1.627-1.813,1.147-2.919,3.072-5.614
		c0.036-0.008,0.068-0.016,0.107-0.016c0.814,0.002,2.732,1.85,3.404,2.309c0.443-0.404,1.035-1.404,1.254-2.027
		c-0.477-0.154-0.807-0.559-1.29-0.743c0.142,0.023,0.278,0.036,0.415,0.039c2.685,0.003,4.128-4.677,5.396-6.685
		c-1.045-0.119-1.708-0.562-2.266-0.954c-0.879-0.003-1.76-0.043-2.639-0.165c-0.004,0.003-0.008,0.004-0.01,0.007
		c1.137,1.14,0.396,5.203-1.07,5.203c-0.336,0-0.717-0.216-1.116-0.735c1.373-3.582-1.281-7.546-5.163-7.583
		c0.236-0.112,0.482-0.159,0.722-0.159c0.472,0.003,0.946,0.175,1.384,0.347c0.416,0.175,0.791,0.35,1.09,0.352
		c0.016,0,0.029-0.003,0.043-0.004c-0.239-0.521-0.373-1.086-0.406-1.667c-1.314-0.364-0.369-0.657-1.125-2.046
		c0.004-0.002,0.01-0.002,0.021-0.005c0.118,0.003,0.53,0.206,0.94,0.412c0.097,0.047,0.194,0.094,0.292,0.139
		c0.104-0.468,0.268-0.924,0.484-1.356c-0.039-0.063-0.07-0.118-0.113-0.185c0.893-1.291,2.184-2.286,2.003-4.283
		c0.489,0.175,0.749,0.258,0.89,0.258c0.321,0,0.064-0.433,0.551-1.33c-2.514-0.85-5.058-2.891-7.475-2.896
		c-0.316,0-0.633,0.039-0.947,0.115l-0.334,1.553c-1.295,2.326-1.809,0.292-4.289,2.503c-0.293-0.996,0.744-1.588,0.555-2.657
		c-0.148-0.693-0.295-0.92-0.426-0.92c-0.125,0-0.241,0.185-0.346,0.36c-0.133,0.201-0.266,0.386-0.406,0.386
		c-0.094,0-0.19-0.086-0.297-0.311c-0.442-0.821-0.566-1.056-0.627-1.056c-0.041,0-0.055,0.107-0.111,0.206
		c-0.084,0.083-0.198,0.162-0.422,0.162c-0.182,0-0.435-0.057-0.799-0.201c-0.736-0.297-0.551-0.781-0.252-1.147
		c-0.631-0.964-1.543-6.1-1.951-7.613C104.915,2.669,96.096,0.007,91.754,0c-0.498-0.001-0.939,0.035-1.299,0.107
		c-6.363,1.283-9.807,6.968-12.475,12.25c-0.723-0.705-1.365-0.996-1.926-0.997c-1.358-0.002-2.247,1.701-2.695,3.429
		c-0.48,1.682-0.521,3.399-0.163,3.397c0.005,0.002,0.007,0.002,0.013,0.002c0.008,0,0.021-0.002,0.033-0.002
		c1.051,0,1.682,2.998,3.359,3.146c0.156,0.016,0.297,0.023,0.43,0.023c0.594,0,0.967-0.12,1.272-0.243
		c0.325-0.13,0.577-0.263,0.97-0.261c0.492,0,1.199,0.211,2.537,0.892c-0.18-0.016-0.336-0.021-0.469-0.021
		c-1.582-0.005-0.197,1.134,0.65,2.093c1.031,1.184-0.488,2.811,0.771,4.03c0.812,0.777,2.543,4.547,2.982,4.771
		c-0.072-0.042,2.875,7.763,3.205,8.835l-0.037,0.041c-1.551,0.326-2.996,0.77-4.399,1.285c0.037-0.594,0-1.184-0.068-1.814
		c-0.843-6.376-6.293-11.019-12.561-11.026c-0.556-0.003-1.123,0.034-1.69,0.107c-2.88,0.365-5.396,1.73-7.283,3.611
		c-0.294-1.273-0.861-1.794-1.984-1.794c-0.83,0-1.964,0.281-3.521,0.751c1.774-1.212,1.665-3.475-0.034-4.841
		c-0.412-0.177-0.771-0.255-1.086-0.258c-1.352-0.003-1.903,1.436-2.354,2.841c-1.874-5.99-2.758-9.432-9.186-12.022
		c-4.134-1.452-8.457-3.113-12.854-3.42c-0.441-0.031-0.887-0.044-1.326-0.047c-3.563-0.005-7.04,0.917-10.133,2.654
		c-3.661,2.138-6.583,5.31-8.808,8.858c-1.036-1.014-1.838-1.418-2.471-1.416c-1.711-0.002-2.228,2.907-3.039,4.658
		c-1.167-0.782-2.162-1.274-2.984-1.277c-0.975-0.002-1.705,0.688-2.188,2.412c-0.262,0.958-1.154,3.991-0.898,4.802
		c0.153,0.552,0.708,0.705,1.409,0.711c0.488,0,1.042-0.072,1.585-0.148c0.554-0.084,1.096-0.164,1.538-0.164
		c0.357,0,0.649,0.055,0.83,0.203c-0.048,3.996,0.506,7.984,2.084,11.721c-0.724-0.629-1.285-0.885-1.719-0.89
		c-1.91,0-1.569,4.847-2.833,5.686c-3.81,2.617,4.912,2.558,5.466,2.591c0.415-0.467,0.946-0.664,1.564-0.664
		c3.432,0.006,9.446,6.279,11.325,8.002c4.648,4.258,6.894,9.252,6.48,15.457c-0.137-0.017-0.269-0.023-0.397-0.023
		c-1.487-0.005-2.315,0.954-2.452,1.941c-0.126,0.976,0.413,1.941,1.733,1.944c0.232,0.003,0.492-0.03,0.775-0.091
		c-0.147-0.738,0.189-1.63-0.03-2.367c2.839,1.738,5.462,3.629,7.526,6.295c-2.443,1.194-2.698,6.137,0.619,6.141
		c0.051,0,0.098-0.004,0.147-0.012l-0.811,0.407c-0.579-0.479-1.29-0.698-2.003-0.696c-2.234-0.006-4.511,2.077-3.032,4.463
		c-0.607-0.436-1.092-0.604-1.499-0.606c-1.309-0.003-1.813,1.726-2.825,2.116c-0.584,0.214-1.332,0.269-2.118,0.267
		c-0.966,0-1.979-0.092-2.797-0.092c-1.084,0.026-2.401,0.164-3.661,0.162c-0.896,0-1.76-0.07-2.51-0.318
		c-4.433-1.446,0.04-3.139,0.708-4.104c-0.276-0.41-0.697-0.588-1.167-0.588c-1.836-0.004-4.406,2.727-1.908,4.763
		c0.966,0.993,1.852,1.168,2.899,1.168c0.593,0.003,1.238-0.056,1.979-0.052c4.876-0.029,9.756-0.023,14.632-0.051
		c-1.958,0.437-3.071,3.137-1.778,4.758c-0.453-0.565-1.095-0.815-1.761-0.818c-1.396,0-2.906,1.066-3.081,2.439
		c-0.356,0.287-1.028,0.362-1.782,0.359c-0.519,0-1.075-0.033-1.583-0.064c-0.553-0.041-1.069-0.078-1.404-0.078
		c-1.404-0.006-3.097,0.203-4.716,0.197c-1.027,0-2.024-0.082-2.897-0.358c-4.838-1.558-0.181-3.474,0.82-4.617
		c-0.319-0.386-0.797-0.534-1.314-0.537c-1.027-0.002-2.224,0.599-2.716,1.16c-3.828,4.658,5.281,5.467,12.196,5.478
		c3.441,0.006,6.335-0.188,6.831-0.203c15.113-0.014,30.265-0.023,45.377-0.078c14.116-0.016,28.232-0.036,42.348-0.047
		c3.33,0.006,6.654-0.031,9.98-0.023c1.721,0,3.218,0.443,4.838,0.451c0.674-0.003,1.368-0.081,2.105-0.295
		c2.594-0.734,4.996-2.575,6.291-4.942c0.271-0.499,0.475-0.856,0.656-1.128c0.08-0.268,0.178-0.523,0.303-0.771
		c0.007-0.385,0.039-0.77,0.142-1.145c0.006-0.021,0.017-0.044,0.024-0.064C140.459,98.325,140.445,98.255,140.443,98.186z
		 M108.59,79.326l0.666-1.034c0.385,0.164,0.857,0.269,1.412,0.269c0.082,0,0.166-0.006,0.254-0.008
		C110.7,78.775,109.665,79.032,108.59,79.326z"/>
	<path fill="none" stroke="#FFFFFF" d="M140.443,98.186c-0.021-0.002-0.04-0.002-0.062-0.004c0.636-4.875-2.389-9.611-7.155-10.982
		c-2.364-0.706-7.281,0.5-3.47-2.299c1.974-1.434,1.914-2.323,2.867-2.857c0.024-0.25,0.082-0.493,0.141-0.736
		c0.01-0.384,0.057-0.766,0.143-1.139c-0.013,0.001-0.023,0.002-0.037,0.003c0.774-4.142-1.174-8.69-5.474-8.696
		c-0.45,0-0.927,0.047-1.422,0.154c-4.513,0.918-4.298,7.716,0.428,8.092c-1.354,1.115-4.29,1.326-6.028,1.321
		c-0.154,0-0.305,0.003-0.437,0c0.625,0.003-1.701-0.778-1.812-0.778c-0.045,0.002-0.092-0.004-0.135-0.004
		c-1.678-0.005-2.355,1.332-1.496,1.369c-1.679,0.656-1.332,0.934-1.971,0.928c-0.078,0.002-0.172,0.002-0.283-0.006
		c2.812-2.586,3.045-9.713-1.46-10.908c-0.407-0.109-0.813-0.146-1.182-0.146c0.149-1.332,0.187-2.62,0.005-3.994
		c-0.365-2.622-1.323-4.992-2.725-7.062c2.812-2.689,4.332-5.9,3.893-9.16c-0.145-1.142-0.516-2.177-1.068-3.175
		c0.752-0.271,1.479-0.6,2.016-0.6c0.255,0,0.469,0.075,0.607,0.268c0.777,1.002,1.512,1.967,2.141,2.887
		c0.593-0.223,1.518-0.957,1.887-1.471c-0.404-0.339-0.551-0.779-0.92-1.149c0.345,0.206,0.662,0.284,0.955,0.286
		c0.55,0,1.014-0.278,1.447-0.545c0.444-0.299,0.863-0.594,1.295-0.594c0.25,0,0.504,0.094,0.773,0.336
		c0.521-1.438,1.188-2.805,3.184-3.764c-0.697-0.923-1.377-1.268-2.023-1.27c-0.96-0.003-1.854,0.75-2.67,1.527
		c-0.818,0.771-1.541,1.538-2.143,1.535c-0.383,0-0.715-0.305-0.998-1.095c1.627-1.813,1.147-2.919,3.072-5.614
		c0.036-0.008,0.068-0.016,0.107-0.016c0.814,0.002,2.732,1.85,3.404,2.309c0.443-0.404,1.035-1.404,1.254-2.027
		c-0.477-0.154-0.807-0.559-1.29-0.743c0.142,0.023,0.278,0.036,0.415,0.039c2.685,0.003,4.128-4.677,5.396-6.685
		c-1.045-0.119-1.708-0.562-2.266-0.954c-0.879-0.003-1.76-0.043-2.639-0.165c-0.004,0.003-0.008,0.004-0.01,0.007
		c1.137,1.14,0.396,5.203-1.07,5.203c-0.336,0-0.717-0.216-1.116-0.735c1.373-3.582-1.281-7.546-5.163-7.583
		c0.236-0.112,0.482-0.159,0.722-0.159c0.472,0.003,0.946,0.175,1.384,0.347c0.416,0.175,0.791,0.35,1.09,0.352
		c0.016,0,0.029-0.003,0.043-0.004c-0.239-0.521-0.373-1.086-0.406-1.667c-1.314-0.364-0.369-0.657-1.125-2.046
		c0.004-0.002,0.01-0.002,0.021-0.005c0.118,0.003,0.53,0.206,0.94,0.412c0.097,0.047,0.194,0.094,0.292,0.139
		c0.104-0.468,0.268-0.924,0.484-1.356c-0.039-0.063-0.07-0.118-0.113-0.185c0.893-1.291,2.184-2.286,2.003-4.283
		c0.489,0.175,0.749,0.258,0.89,0.258c0.321,0,0.064-0.433,0.551-1.33c-2.514-0.85-5.058-2.891-7.475-2.896
		c-0.316,0-0.633,0.039-0.947,0.115l-0.334,1.553c-1.295,2.326-1.809,0.292-4.289,2.503c-0.293-0.996,0.744-1.588,0.555-2.657
		c-0.148-0.693-0.295-0.92-0.426-0.92c-0.125,0-0.241,0.185-0.346,0.36c-0.133,0.201-0.266,0.386-0.406,0.386
		c-0.094,0-0.19-0.086-0.297-0.311c-0.442-0.821-0.566-1.056-0.627-1.056c-0.041,0-0.055,0.107-0.111,0.206
		c-0.084,0.083-0.198,0.162-0.422,0.162c-0.182,0-0.435-0.057-0.799-0.201c-0.736-0.297-0.551-0.781-0.252-1.147
		c-0.631-0.964-1.543-6.1-1.951-7.613C104.915,2.669,96.096,0.007,91.754,0c-0.498-0.001-0.939,0.035-1.299,0.107
		c-6.363,1.283-9.807,6.968-12.475,12.25c-0.723-0.705-1.365-0.996-1.926-0.997c-1.358-0.002-2.247,1.701-2.695,3.429
		c-0.48,1.682-0.521,3.399-0.163,3.397c0.005,0.002,0.007,0.002,0.013,0.002c0.008,0,0.021-0.002,0.033-0.002
		c1.051,0,1.682,2.998,3.359,3.146c0.156,0.016,0.297,0.023,0.43,0.023c0.594,0,0.967-0.12,1.272-0.243
		c0.325-0.13,0.577-0.263,0.97-0.261c0.492,0,1.199,0.211,2.537,0.892c-0.18-0.016-0.336-0.021-0.469-0.021
		c-1.582-0.005-0.197,1.134,0.65,2.093c1.031,1.184-0.488,2.811,0.771,4.03c0.812,0.777,2.543,4.547,2.982,4.771
		c-0.072-0.042,2.875,7.763,3.205,8.835l-0.037,0.041c-1.551,0.326-2.996,0.77-4.399,1.285c0.037-0.594,0-1.184-0.068-1.814
		c-0.843-6.376-6.293-11.019-12.561-11.026c-0.556-0.003-1.123,0.034-1.69,0.107c-2.88,0.365-5.396,1.73-7.283,3.611
		c-0.294-1.273-0.861-1.794-1.984-1.794c-0.83,0-1.964,0.281-3.521,0.751c1.774-1.212,1.665-3.475-0.034-4.841
		c-0.412-0.177-0.771-0.255-1.086-0.258c-1.352-0.003-1.903,1.436-2.354,2.841c-1.874-5.99-2.758-9.432-9.186-12.022
		c-4.134-1.452-8.457-3.113-12.854-3.42c-0.441-0.031-0.887-0.044-1.326-0.047c-3.563-0.005-7.04,0.917-10.133,2.654
		c-3.661,2.138-6.583,5.31-8.808,8.858c-1.036-1.014-1.838-1.418-2.471-1.416c-1.711-0.002-2.228,2.907-3.039,4.658
		c-1.167-0.782-2.162-1.274-2.984-1.277c-0.975-0.002-1.705,0.688-2.188,2.412c-0.262,0.958-1.154,3.991-0.898,4.802
		c0.153,0.552,0.708,0.705,1.409,0.711c0.488,0,1.042-0.072,1.585-0.148c0.554-0.084,1.096-0.164,1.538-0.164
		c0.357,0,0.649,0.055,0.83,0.203c-0.048,3.996,0.506,7.984,2.084,11.721c-0.724-0.629-1.285-0.885-1.719-0.89
		c-1.91,0-1.569,4.847-2.833,5.686c-3.81,2.617,4.912,2.558,5.466,2.591c0.415-0.467,0.946-0.664,1.564-0.664
		c3.432,0.006,9.446,6.279,11.325,8.002c4.648,4.258,6.894,9.252,6.48,15.457c-0.137-0.017-0.269-0.023-0.397-0.023
		c-1.487-0.005-2.315,0.954-2.452,1.941c-0.126,0.976,0.413,1.941,1.733,1.944c0.232,0.003,0.492-0.03,0.775-0.091
		c-0.147-0.738,0.189-1.63-0.03-2.367c2.839,1.738,5.462,3.629,7.526,6.295c-2.443,1.194-2.698,6.137,0.619,6.141
		c0.051,0,0.098-0.004,0.147-0.012l-0.811,0.407c-0.579-0.479-1.29-0.698-2.003-0.696c-2.234-0.006-4.511,2.077-3.032,4.463
		c-0.607-0.436-1.092-0.604-1.499-0.606c-1.309-0.003-1.813,1.726-2.825,2.116c-0.584,0.214-1.332,0.269-2.118,0.267
		c-0.966,0-1.979-0.092-2.797-0.092c-1.084,0.026-2.401,0.164-3.661,0.162c-0.896,0-1.76-0.07-2.51-0.318
		c-4.433-1.446,0.04-3.139,0.708-4.104c-0.276-0.41-0.697-0.588-1.167-0.588c-1.836-0.004-4.406,2.727-1.908,4.763
		c0.966,0.993,1.852,1.168,2.899,1.168c0.593,0.003,1.238-0.056,1.979-0.052c4.876-0.029,9.756-0.023,14.632-0.051
		c-1.958,0.437-3.071,3.137-1.778,4.758c-0.453-0.565-1.095-0.815-1.761-0.818c-1.396,0-2.906,1.066-3.081,2.439
		c-0.356,0.287-1.028,0.362-1.782,0.359c-0.519,0-1.075-0.033-1.583-0.064c-0.553-0.041-1.069-0.078-1.404-0.078
		c-1.404-0.006-3.097,0.203-4.716,0.197c-1.027,0-2.024-0.082-2.897-0.358c-4.838-1.558-0.181-3.474,0.82-4.617
		c-0.319-0.386-0.797-0.534-1.314-0.537c-1.027-0.002-2.224,0.599-2.716,1.16c-3.828,4.658,5.281,5.467,12.196,5.478
		c3.441,0.006,6.335-0.188,6.831-0.203c15.113-0.014,30.265-0.023,45.377-0.078c14.116-0.016,28.232-0.036,42.348-0.047
		c3.33,0.006,6.654-0.031,9.98-0.023c1.721,0,3.218,0.443,4.838,0.451c0.674-0.003,1.368-0.081,2.105-0.295
		c2.594-0.734,4.996-2.575,6.291-4.942c0.271-0.499,0.475-0.856,0.656-1.128c0.08-0.268,0.178-0.523,0.303-0.771
		c0.007-0.385,0.039-0.77,0.142-1.145c0.006-0.021,0.017-0.044,0.024-0.064C140.459,98.325,140.445,98.255,140.443,98.186z
		 M108.59,79.326l0.666-1.034c0.385,0.164,0.857,0.269,1.412,0.269c0.082,0,0.166-0.006,0.254-0.008
		C110.7,78.775,109.665,79.032,108.59,79.326z"/>
</g>
</svg>
