<?xml version="1.0" encoding="utf-8"?>
<!-- Generator: Adobe Illustrator 17.0.0, SVG Export Plug-In . SVG Version: 6.00 Build 0)  -->
<!DOCTYPE svg PUBLIC "-//W3C//DTD SVG 1.1//EN" "http://www.w3.org/Graphics/SVG/1.1/DTD/svg11.dtd">
<svg version="1.1" id="Capa_1" xmlns="http://www.w3.org/2000/svg" xmlns:xlink="http://www.w3.org/1999/xlink" x="0px" y="0px"
	 width="64px" height="64px" viewBox="0 0 64 64" enable-background="new 0 0 64 64" xml:space="preserve">
<g>
	<path d="M7.286,52.479c1.86,1.025,3.96,1.567,6.073,1.567c4.593,0,8.823-2.496,11.039-6.515c0.086-0.155,0.152-0.316,0.231-0.473
		l4.017,1.343c0.014,0.005,0.029,0.003,0.043,0.007c0,0,0.001,0,0.002,0c0.062,0.019,0.123,0.041,0.187,0.053
		c0.105,0.02,0.212,0.03,0.322,0.03c0,0,0.001,0,0.001,0c0,0,0,0,0,0c0,0,0.001,0,0.001,0c0,0,0,0,0,0s0,0,0,0s0,0,0,0
		c0.001,0,0.002,0,0.003,0c0.066,0,0.132-0.004,0.199-0.011c0.042-0.005,0.081-0.019,0.122-0.027
		c0.048-0.009,0.095-0.018,0.141-0.031c0.086-0.024,0.166-0.055,0.246-0.091c0.036-0.016,0.074-0.03,0.109-0.049
		c0.014-0.007,0.029-0.012,0.043-0.019c0.019-0.011,0.035-0.026,0.054-0.038c0.073-0.045,0.145-0.093,0.21-0.148
		c0.003-0.003,0.008-0.005,0.011-0.008c0,0,0.001-0.001,0.001-0.001c0.033-0.029,0.06-0.063,0.09-0.094
		c0.048-0.049,0.1-0.095,0.142-0.148c0.01-0.013,0.017-0.028,0.026-0.041c0.008-0.01,0.018-0.017,0.025-0.028l15.076-21.152
		l0.708,3.451c-2.855,1.017-5.298,3.045-6.807,5.782c-3.354,6.082-1.134,13.757,4.947,17.111c1.86,1.025,3.96,1.567,6.073,1.567
		c4.593,0,8.823-2.496,11.039-6.515c3.353-6.082,1.134-13.758-4.947-17.112c-1.86-1.025-3.96-1.567-6.072-1.567
		c-0.269,0-0.537,0.01-0.804,0.027l-2.427-11.823c-0.115-0.558-0.495-1.023-1.017-1.251c-0.522-0.228-1.124-0.187-1.61,0.11
		c-0.031,0.018-3.101,1.854-5.805,1.546c-0.954-0.11-1.829,0.577-1.94,1.537s0.577,1.829,1.537,1.94
		c2.157,0.252,4.319-0.359,5.858-0.977l0.226,1.101l-16.069,5.112l-0.243-2.06h1.548c1.079,0,1.953-0.874,1.953-1.953
		s-0.874-1.953-1.953-1.953h-7.452c-1.079,0-1.953,0.874-1.953,1.953s0.874,1.953,1.953,1.953h2.38l0.435,3.688l-3.844,3.495
		c-0.602-0.5-1.255-0.956-1.965-1.348c-1.86-1.025-3.96-1.567-6.072-1.567c-4.593,0-8.823,2.497-11.039,6.515
		C-1.015,41.449,1.205,49.125,7.286,52.479z M48.917,42.271c0.17,0.828,0.899,1.398,1.712,1.398c0.117,0,0.235-0.012,0.354-0.036
		c0.947-0.194,1.557-1.12,1.362-2.066l-1.794-8.739c0.03,0,0.06-0.006,0.09-0.006c1.523,0,3.038,0.392,4.382,1.132
		c4.391,2.422,5.994,7.965,3.573,12.356c-1.601,2.902-4.656,4.705-7.974,4.705c-1.523,0-3.039-0.392-4.382-1.132
		c-4.392-2.422-5.994-7.965-3.572-12.356c1.007-1.827,2.592-3.216,4.456-3.996L48.917,42.271z M5.404,37.058
		c1.601-2.902,4.656-4.706,7.975-4.706c1.523,0,3.038,0.392,4.382,1.132c0.365,0.201,0.702,0.431,1.028,0.672l-6.597,5.998
		c-0.459,0.418-0.663,1.048-0.535,1.656s0.568,1.102,1.158,1.299l8.457,2.827c-1.615,2.844-4.632,4.61-7.913,4.61
		c-1.523,0-3.039-0.392-4.382-1.132C4.585,46.992,2.982,41.449,5.404,37.058z M22.38,42.616l-5.625-1.88l4.387-3.989
		C22.196,38.498,22.643,40.569,22.38,42.616z M41.737,26.135L30.41,42.028L29.022,30.18L41.737,26.135z M25.763,32.545l1.375,11.661
		l-1.394-0.466c0.604-3.278-0.13-6.654-1.98-9.378L25.763,32.545z"/>
</g>
</svg>
