<?xml version="1.0" encoding="utf-8"?>
<!-- Generator: Adobe Illustrator 15.0.0, SVG Export Plug-In . SVG Version: 6.00 Build 0)  -->
<!DOCTYPE svg PUBLIC "-//W3C//DTD SVG 1.1//EN" "http://www.w3.org/Graphics/SVG/1.1/DTD/svg11.dtd">
<svg version="1.1" id="Layer_1" xmlns="http://www.w3.org/2000/svg" xmlns:xlink="http://www.w3.org/1999/xlink" x="0px" y="0px"
	 width="64px" height="64px" viewBox="0 0 64 64" enable-background="new 0 0 64 64" xml:space="preserve">
<g>
	<g>
		<g>
			<path fill="#231F20" d="M42.937,13.479c2.441,1.293,2.925,2.075,3.279,2.647c0.207,0.334,0.405,0.654,0.867,0.919l-0.601,3.347
				l2.07,0.371l0.582-3.256l0.037-0.027c0.186-0.136,0.372-0.266,0.569-0.39c0.394,0.65,1.188,0.977,1.485,1.079l1.471,1.264
				l0.118,0.029c1.038,0.248,2.107-0.414,2.355-1.448c0.155-0.663-0.047-1.33-0.484-1.793c0.155,0.029,0.3,0.049,0.438,0.049
				c0.378,0,0.856-0.159,0.993-0.913c0.344-1.916-2.338-3.948-6.106-4.624c-1.377-0.247-3.311-0.407-4.924-0.407
				c-3.255,0-3.824,0.609-3.953,1.14C40.927,12.293,41.988,12.976,42.937,13.479z M45.087,11.331c1.536,0,3.444,0.158,4.747,0.391
				c3.377,0.607,5.501,2.31,5.294,3.459c-0.007,0.04-0.015,0.067-0.018,0.085c-0.115-0.002-0.298-0.042-0.507-0.09
				c-0.703-0.154-1.948-0.32-3.142,0.011l-1.499,0.612l-0.188,0.105c-0.373,0.207-0.701,0.413-1.021,0.639l-0.453-0.078
				l-0.562,3.133l-0.094-0.018l0.563-3.138l-0.381-0.152c-0.437-0.171-0.538-0.335-0.76-0.693c-0.392-0.63-0.981-1.583-3.662-3.005
				c-0.896-0.475-1.178-0.764-1.263-0.883C42.32,11.602,42.975,11.331,45.087,11.331z"/>
		</g>
		<g>
			<path fill="#231F20" d="M38.668,27.431l1.358,0.3c0.955,0.208,1.888,0.163,2.734-0.137c1.144,1.389,2.294,2.77,3.435,4.102
				c0.708,1.02,2.938,1.1,2.959,1.1h7.719c1.649,0,2.99-1.34,2.99-2.989c0-1.646-1.341-2.988-2.99-2.988h-6.614
				c-1.42-1.671-2.816-3.362-4.208-5.057c-0.313-1.796-1.571-3.059-3.476-3.477l-16.312-3.591c-0.488-0.107-0.97-0.161-1.434-0.161
				c-2.883,0-4.687,2.062-5.166,4.008c-0.364,0.644-0.154,1.334,0.033,1.946c0.063,0.202,0.125,0.408,0.167,0.615l5.127,25.645
				c0.332,1.664,1.806,2.874,3.501,2.874c0.234,0,0.473-0.024,0.705-0.071c1.933-0.387,3.189-2.272,2.804-4.207l-0.438-2.192
				c0.594,0.081,1.185,0.003,1.73-0.208c6.573-2.529,7.546-6.844,7.541-9.192C40.829,31.729,40.084,29.565,38.668,27.431z
				 M32.621,37.207c-0.46,0.177-2.149,0.991-2.384,1.194l-0.66,0.575l-0.175-0.848L27.04,25.616l0.661-0.015
				c3.08,0,7.858,4.985,7.863,7.503C35.567,34.212,35.188,36.219,32.621,37.207z"/>
		</g>
	</g>
	<g>
		<path fill="#231F20" d="M13.109,38.183c3.008,0,5.455,2.446,5.455,5.455c0,3.008-2.447,5.455-5.455,5.455
			s-5.456-2.447-5.456-5.455C7.654,40.629,10.101,38.183,13.109,38.183 M13.109,33.602c-5.534,0-10.036,4.502-10.036,10.036
			c0,5.533,4.502,10.035,10.036,10.035c5.534,0,10.036-4.502,10.036-10.035C23.145,38.104,18.644,33.602,13.109,33.602
			L13.109,33.602z"/>
	</g>
	<g>
		<path fill="#231F20" d="M50.889,38.183c3.01,0,5.457,2.446,5.457,5.455c0,3.008-2.447,5.455-5.457,5.455
			c-3.009,0-5.455-2.447-5.455-5.455C45.434,40.629,47.88,38.183,50.889,38.183 M50.889,33.602c-5.533,0-10.036,4.502-10.036,10.036
			c0,5.533,4.503,10.035,10.036,10.035c5.536,0,10.038-4.502,10.038-10.035C60.927,38.104,56.425,33.602,50.889,33.602
			L50.889,33.602z"/>
	</g>
</g>
</svg>
